<svg xmlns="http://www.w3.org/2000/svg" version="1.1" xmlns:xlink="http://www.w3.org/1999/xlink" xmlns:svgjs="http://svgjs.dev/svgjs" width="2000" height="1500" viewBox="0 0 2000 1500"><rect width="2000" height="1500" fill="#1b221f"></rect><g transform="matrix(0.75,0,0,0.75,249.090909090909,282.7536437246963)"><svg viewBox="0 0 396 247" data-background-color="#1b221f" preserveAspectRatio="xMidYMid meet" height="1247" width="2000" xmlns="http://www.w3.org/2000/svg" xmlns:xlink="http://www.w3.org/1999/xlink"><g id="tight-bounds" transform="matrix(1,0,0,1,0.2400000000000091,-0.09999999999999432)"><svg viewBox="0 0 395.52 247.2" height="247.2" width="395.52"><g><svg></svg></g><g><svg viewBox="0 0 395.52 247.2" height="247.2" width="395.52"><mask id="2c558b84-b2e1-4c59-a6d1-6909fcf8fe8c"><rect width="395.52" height="247.2" fill="white"></rect><g transform="matrix(1,0,0,1,2.842170943040401e-14,104.1546646399392)" id="clone"><svg viewBox="0 0 395.5199999999999 38.89067072012159" height="38.89067072012159" width="395.5199999999999"><g><svg viewBox="0 0 395.5199999999999 38.89067072012159" height="38.89067072012159" width="395.5199999999999"><g><svg viewBox="0 0 395.52000000000004 38.8906707201216" height="38.89067072012159" width="395.5199999999999"><g><svg viewBox="0 0 395.52000000000004 38.8906707201216" height="38.8906707201216" width="395.52000000000004"><g id="SvgjsG3166"><svg viewBox="0 0 395.52000000000004 38.8906707201216" height="38.8906707201216" width="395.52000000000004" id="SvgjsSvg3165"><g><svg viewBox="0 0 395.52000000000004 38.8906707201216" height="38.8906707201216" width="395.52000000000004"><g transform="matrix(1,0,0,1,0,0)"><svg width="395.52000000000004" viewBox="-8.450000047683716 -36.64999961853027 527.260009765625 52.75" height="38.8906707201216" data-palette-color="#3d9970"><path d="M28.5-25.35L28.5-25.35 30.15-25.35Q33.35-25.35 34.9-26.1L34.9-26.1Q32.7-22.85 30.65-20.45L30.65-20.45 29.85-20.45Q27.3-20.45 24.9-21.25L24.9-21.25Q21.5-18.45 19.45-13.8L19.45-13.8Q24.75-12.45 31.25-12.2L31.25-12.2Q32.75-8.4 33.3 0L33.3 0 20.35 0Q19.5-3.7 17.78-6.83 16.05-9.95 14.2-11.1L14.2-11.1Q13.85-7 13.85-4.5 13.85-2 14 0L14 0 3 0Q2.05-7.35 2.05-12.43 2.05-17.5 2.8-25L2.8-25 16.7-25Q15.2-18.8 14.65-14.6L14.65-14.6Q16.9-18.3 19.38-20.83 21.85-23.35 25.25-25.1L25.25-25.1Q26.55-25.35 28.5-25.35ZM66.45-16.3L66.45-16.3 66.4-14.6Q62.4-12.45 56.4-11.25L56.4-11.25Q60.7-10.1 64.7-10.1L64.7-10.1 65.75-10.1Q68.5-6.05 69.3 0L69.3 0 56.35 0Q55.85-3.5 54.32-6.03 52.8-8.55 50.6-9.45L50.6-9.45Q50.55-8.6 50.55-6.05 50.55-3.5 50.85 0L50.85 0 39.95 0Q38.5-7.25 38.5-13.48 38.5-19.7 39.2-25L39.2-25 65.3-25Q66.45-19.95 66.45-16.3ZM51.65-21.65L51.65-21.65Q51.05-17.25 50.75-13L50.75-13Q53.5-13.4 55.25-14.95L55.25-14.95Q54.3-18.3 51.65-21.65ZM105.15-0.4L105.15-0.4 105.15 0 93.55 0Q93.35-2.75 92.7-5.9L92.7-5.9Q89.2-2.4 85.7 0L85.7 0 74.05 0Q73.7-2.05 73.7-5.43 73.7-8.8 74.7-12.2L74.7-12.2Q78.3-13.25 81.62-15.75 84.95-18.25 86.45-21.15L86.45-21.15Q85.05-23.35 83.6-25L83.6-25 100.2-25Q105.15-14.15 105.15-0.4ZM91.8-9.55L91.8-9.55Q90.55-13.85 88.4-17.95L88.4-17.95Q86.05-11.05 85.7-4.9L85.7-4.9Q89.4-6.9 91.8-9.55ZM127.19-22L127.19-22Q125.19-22.3 122.92-22.3 120.64-22.3 118.49-22L118.49-22Q119.84-19.7 121.69-18.25 123.54-16.8 126.37-15.38 129.19-13.95 130.97-12.75 132.74-11.55 134.89-8.8 137.04-6.05 137.59-3.05L137.59-3.05Q135.19 0.05 131.24 2.43 127.29 4.8 123.14 5.6L123.14 5.6Q120.34 5.35 116.07 4.03 111.79 2.7 109.64 2.7 107.49 2.7 105.34 4.05L105.34 4.05Q106.24 1.5 108.29-2.35L108.29-2.35 108.69-2.35Q111.89-2.35 114.72-1.35 117.54-0.35 119.87 0.65 122.19 1.65 123.62 1.65 125.04 1.65 125.69 1.45L125.69 1.45Q125.69-1.85 123.64-4L123.64-4Q122.54-5.15 121.77-5.78 120.99-6.4 119.39-7.5L119.39-7.5 118.54-8.1Q115.14-10.45 112.94-12.88 110.74-15.3 109.74-18.85L109.74-18.85Q111.34-22.4 112.89-25L112.89-25Q117.64-26.15 122.74-26.15L122.74-26.15 124.94-26.15Q129.24-26.15 134.79-24.95L134.79-24.95Q133.99-21.65 132.84-19L132.84-19Q128.64-18.7 126.34-18.7L126.34-18.7Q126.79-19.85 127.19-22ZM141.34-25L154.84-25 154.84-23.65Q154.84-10.45 153.19 0L153.19 0 141.19 0Q142.14-4.6 142.14-10.63 142.14-16.65 141.34-25L141.34-25ZM190.44-22.7L190.44-22.7Q190.44-24.05 190.04-25L190.04-25 204.29-25Q206.09-20.2 206.96-13.25 207.84-6.3 207.89 0L207.89 0 196.34 0Q195.99-9 193.39-17.35L193.39-17.35Q189.04-8.85 188.69 0L188.69 0 178.89 0Q177.59-9.8 173.89-17.4L173.89-17.4Q171.19-11.05 171.19-5.6L171.19-5.6Q171.19-2.65 171.89 0L171.89 0 159.74 0Q159.39-2.05 159.39-5.43 159.39-8.8 160.39-12.2L160.39-12.2Q163.94-13.25 167.21-15.65 170.49-18.05 172.04-20.9L172.04-20.9Q170.74-23.05 169.29-25L169.29-25 185.09-25Q186.99-19.85 187.94-13.8L187.94-13.8Q190.44-18.45 190.44-22.7ZM213.74-25L227.24-25 227.24-23.65Q227.24-10.45 225.59 0L225.59 0 213.59 0Q214.54-4.6 214.54-10.63 214.54-16.65 213.74-25L213.74-25ZM261.08-16.3L261.08-16.3 261.03-14.6Q257.03-12.45 251.03-11.25L251.03-11.25Q255.33-10.1 259.33-10.1L259.33-10.1 260.38-10.1Q263.13-6.05 263.93 0L263.93 0 250.98 0Q250.48-3.5 248.96-6.03 247.43-8.55 245.23-9.45L245.23-9.45Q245.18-8.6 245.18-6.05 245.18-3.5 245.48 0L245.48 0 234.58 0Q233.13-7.25 233.13-13.48 233.13-19.7 233.83-25L233.83-25 259.93-25Q261.08-19.95 261.08-16.3ZM246.28-21.65L246.28-21.65Q245.68-17.25 245.38-13L245.38-13Q248.13-13.4 249.88-14.95L249.88-14.95Q248.93-18.3 246.28-21.65ZM317.73-20.85L317.73-20.85Q317.73-11.05 315.83 0L315.83 0 303.88 0Q304.68-5.9 304.93-12.7L304.93-12.7Q302.33-14.3 299.13-14.65L299.13-14.65Q298.83-7.3 297.53 0L297.53 0 286.18 0Q286.83-4.9 286.83-11.73 286.83-18.55 285.93-25L285.93-25 299.13-25Q299.23-22.95 299.23-18.9L299.23-18.9Q302.13-18 304.98-16.45L304.98-16.45Q304.98-21.1 304.63-25L304.63-25 317.63-25Q317.73-22.2 317.73-20.85ZM350.88-16.3L350.88-16.3 350.83-14.6Q346.83-12.45 340.83-11.25L340.83-11.25Q345.13-10.1 349.13-10.1L349.13-10.1 350.18-10.1Q352.93-6.05 353.73 0L353.73 0 340.78 0Q340.28-3.5 338.75-6.03 337.23-8.55 335.03-9.45L335.03-9.45Q334.98-8.6 334.98-6.05 334.98-3.5 335.28 0L335.28 0 324.38 0Q322.93-7.25 322.93-13.48 322.93-19.7 323.63-25L323.63-25 349.73-25Q350.88-19.95 350.88-16.3ZM336.08-21.65L336.08-21.65Q335.48-17.25 335.18-13L335.18-13Q337.93-13.4 339.68-14.95L339.68-14.95Q338.73-18.3 336.08-21.65ZM358.62-25L372.12-25 372.12-23.65Q372.12-10.45 370.47 0L370.47 0 358.47 0Q359.42-4.6 359.42-10.63 359.42-16.65 358.62-25L358.62-25ZM396.02-22L396.02-22Q394.02-22.3 391.75-22.3 389.47-22.3 387.32-22L387.32-22Q388.67-19.7 390.52-18.25 392.37-16.8 395.2-15.38 398.02-13.95 399.8-12.75 401.57-11.55 403.72-8.8 405.87-6.05 406.42-3.05L406.42-3.05Q404.02 0.05 400.07 2.43 396.12 4.8 391.97 5.6L391.97 5.6Q389.17 5.35 384.9 4.03 380.62 2.7 378.47 2.7 376.32 2.7 374.17 4.05L374.17 4.05Q375.07 1.5 377.12-2.35L377.12-2.35 377.52-2.35Q380.72-2.35 383.55-1.35 386.37-0.35 388.7 0.65 391.02 1.65 392.45 1.65 393.87 1.65 394.52 1.45L394.52 1.45Q394.52-1.85 392.47-4L392.47-4Q391.37-5.15 390.6-5.78 389.82-6.4 388.22-7.5L388.22-7.5 387.37-8.1Q383.97-10.45 381.77-12.88 379.57-15.3 378.57-18.85L378.57-18.85Q380.17-22.4 381.72-25L381.72-25Q386.47-26.15 391.57-26.15L391.57-26.15 393.77-26.15Q398.07-26.15 403.62-24.95L403.62-24.95Q402.82-21.65 401.67-19L401.67-19Q397.47-18.7 395.17-18.7L395.17-18.7Q395.62-19.85 396.02-22ZM430.22-21.75L430.22-21.75Q428.92-13.85 428.92-8.85 428.92-3.85 429.32 0L429.32 0 418.42 0Q416.72-7.95 416.72-17.1L416.72-17.1Q416.72-18.65 416.82-21.75L416.82-21.75Q412.57-20.5 411.62-16L411.62-16 406.67-16.3 408.47-25 441.72-25Q440.72-19.5 439.42-16L439.42-16 434.37-16.3Q434.57-17.1 434.57-17.9L434.57-17.9Q434.57-19.85 433.37-20.8 432.17-21.75 430.22-21.75ZM448.02-0.15L448.02-0.15Q443.57-5.85 443.57-11.85 443.57-17.85 448.57-22 453.57-26.15 461.37-26.15L461.37-26.15Q465.52-26.15 469.62-24.9L469.62-24.9Q473.22-20.35 473.22-15.15L473.22-15.15Q473.22-8.6 467.87-3.75 462.52 1.1 454.92 1.1L454.92 1.1Q451.67 1.1 448.02-0.15ZM455.62-21.8L455.62-21.8Q453.87-18.8 453.87-14.75 453.87-10.7 455.64-7.28 457.42-3.85 460.52-2.35L460.52-2.35Q462.87-5.35 462.87-9.3 462.87-13.25 460.94-16.65 459.02-20.05 455.62-21.8ZM496.21-17.05L496.21-17.05Q496.21-20.7 494.91-25L494.91-25 508.26-25Q508.31-24.25 508.31-22.8L508.31-22.8Q508.31-16.4 506.61-12.25L506.61-12.25Q502.01-10.25 499.24-8.22 496.46-6.2 496.46-4.05 496.46-1.9 498.31 0L498.31 0 485.76 0Q477.31-10.75 475.16-25L475.16-25 488.81-25Q489.01-15.85 493.51-7.15L493.51-7.15Q496.21-11.65 496.21-17.05Z" opacity="1" transform="matrix(1,0,0,1,0,0)" fill="black" class="wordmark-text-0" id="SvgjsPath3164" stroke-width="20" stroke="black" stroke-linejoin="round"></path></svg></g></svg></g></svg></g></svg></g><g></g></svg></g></svg></g></svg></g></mask><g mask="url(#2c558b84-b2e1-4c59-a6d1-6909fcf8fe8c)"><g><path xmlns="http://www.w3.org/2000/svg" d="M153.507 52.68v0h9.514c12.3 0 21.43-1.441 27.388-4.324v0c-8.457 12.493-16.625 23.352-24.505 32.577v0h-4.613c-9.802 0-19.316-1.538-28.541-4.613v0c-13.069 10.763-23.544 25.081-31.424 42.956v0c20.373 5.189 43.052 8.264 68.037 9.225v0c5.766 14.607 9.706 38.055 11.82 70.343v0h-74.668c-3.267-14.222-8.207-27.349-14.818-39.38-6.65-11.993-13.531-20.2-20.642-24.621v0c-1.345 15.76-2.018 28.445-2.018 38.055 0 9.61 0.288 18.259 0.865 25.946v0h-63.424c-3.652-28.253-5.478-52.143-5.478-71.669 0-19.489 1.441-43.648 4.324-72.477v0h80.146c-5.766 23.832-9.706 43.821-11.82 59.965v0c8.649-14.222 17.74-26.196 27.272-35.921 9.494-9.687 20.776-17.893 33.846-24.621v0c4.997-0.961 11.243-1.441 18.739-1.441zM394.52 78.626v0c0 37.67-3.652 77.743-10.955 120.218v0h-68.902c3.075-22.679 5.093-47.088 6.054-73.226v0c-9.994-6.15-21.141-9.898-33.442-11.243v0c-1.153 28.253-4.228 56.409-9.225 84.469v0h-65.443c2.499-18.835 3.748-41.38 3.748-67.633 0-26.215-1.73-51.72-5.189-76.513v0h76.109c0.384 7.88 0.577 19.604 0.577 35.172v0c11.147 3.46 22.199 8.168 33.153 14.126v0c0-17.874-0.673-34.307-2.018-49.298v0h74.956c0.384 10.763 0.577 18.739 0.577 23.928z" fill="#134a19" fill-rule="nonzero" stroke="none" stroke-width="1" stroke-linecap="butt" stroke-linejoin="miter" stroke-miterlimit="10" stroke-dasharray="" stroke-dashoffset="0" font-family="none" font-weight="none" font-size="none" text-anchor="none" style="mix-blend-mode: normal" data-fill-palette-color="tertiary"></path></g></g><g transform="matrix(1,0,0,1,2.842170943040401e-14,104.1546646399392)"><svg viewBox="0 0 395.5199999999999 38.89067072012159" height="38.89067072012159" width="395.5199999999999"><g><svg viewBox="0 0 395.5199999999999 38.89067072012159" height="38.89067072012159" width="395.5199999999999"><g><svg viewBox="0 0 395.52000000000004 38.8906707201216" height="38.89067072012159" width="395.5199999999999"><g><svg viewBox="0 0 395.52000000000004 38.8906707201216" height="38.8906707201216" width="395.52000000000004"><g id="textblocktransform"><svg viewBox="0 0 395.52000000000004 38.8906707201216" height="38.8906707201216" width="395.52000000000004" id="textblock"><g><svg viewBox="0 0 395.52000000000004 38.8906707201216" height="38.8906707201216" width="395.52000000000004"><g transform="matrix(1,0,0,1,0,0)"><svg width="395.52000000000004" viewBox="-8.450000047683716 -36.64999961853027 527.260009765625 52.75" height="38.8906707201216" data-palette-color="#3d9970"><path d="M28.5-25.35L28.5-25.35 30.15-25.35Q33.35-25.35 34.9-26.1L34.9-26.1Q32.7-22.85 30.65-20.45L30.65-20.45 29.85-20.45Q27.3-20.45 24.9-21.25L24.9-21.25Q21.5-18.45 19.45-13.8L19.45-13.8Q24.75-12.45 31.25-12.2L31.25-12.2Q32.75-8.4 33.3 0L33.3 0 20.35 0Q19.5-3.7 17.78-6.83 16.05-9.95 14.2-11.1L14.2-11.1Q13.85-7 13.85-4.5 13.85-2 14 0L14 0 3 0Q2.05-7.35 2.05-12.43 2.05-17.5 2.8-25L2.8-25 16.7-25Q15.2-18.8 14.65-14.6L14.65-14.6Q16.9-18.3 19.38-20.83 21.85-23.35 25.25-25.1L25.25-25.1Q26.55-25.35 28.5-25.35ZM66.45-16.3L66.45-16.3 66.4-14.6Q62.4-12.45 56.4-11.25L56.4-11.25Q60.7-10.1 64.7-10.1L64.7-10.1 65.75-10.1Q68.5-6.05 69.3 0L69.3 0 56.35 0Q55.85-3.5 54.32-6.03 52.8-8.55 50.6-9.45L50.6-9.45Q50.55-8.6 50.55-6.05 50.55-3.5 50.85 0L50.85 0 39.95 0Q38.5-7.25 38.5-13.48 38.5-19.7 39.2-25L39.2-25 65.3-25Q66.45-19.95 66.45-16.3ZM51.65-21.65L51.65-21.65Q51.05-17.25 50.75-13L50.75-13Q53.5-13.4 55.25-14.95L55.25-14.95Q54.3-18.3 51.65-21.65ZM105.15-0.4L105.15-0.4 105.15 0 93.55 0Q93.35-2.75 92.7-5.9L92.7-5.9Q89.2-2.4 85.7 0L85.7 0 74.05 0Q73.7-2.05 73.7-5.43 73.7-8.8 74.7-12.2L74.7-12.2Q78.3-13.25 81.62-15.75 84.95-18.25 86.45-21.15L86.45-21.15Q85.05-23.35 83.6-25L83.6-25 100.2-25Q105.15-14.15 105.15-0.4ZM91.8-9.55L91.8-9.55Q90.55-13.85 88.4-17.95L88.4-17.95Q86.05-11.05 85.7-4.9L85.7-4.9Q89.4-6.9 91.8-9.55ZM127.19-22L127.19-22Q125.19-22.3 122.92-22.3 120.64-22.3 118.49-22L118.49-22Q119.84-19.7 121.69-18.25 123.54-16.8 126.37-15.38 129.19-13.95 130.97-12.75 132.74-11.55 134.89-8.8 137.04-6.05 137.59-3.05L137.59-3.05Q135.19 0.05 131.24 2.43 127.29 4.8 123.14 5.6L123.14 5.6Q120.34 5.35 116.07 4.03 111.79 2.7 109.64 2.7 107.49 2.7 105.34 4.05L105.34 4.05Q106.24 1.5 108.29-2.35L108.29-2.35 108.69-2.35Q111.89-2.35 114.72-1.35 117.54-0.35 119.87 0.65 122.19 1.65 123.62 1.65 125.04 1.65 125.69 1.45L125.69 1.45Q125.69-1.85 123.64-4L123.64-4Q122.54-5.15 121.77-5.78 120.99-6.4 119.39-7.5L119.39-7.5 118.54-8.1Q115.14-10.45 112.94-12.88 110.74-15.3 109.74-18.85L109.74-18.85Q111.34-22.4 112.89-25L112.89-25Q117.64-26.15 122.74-26.15L122.74-26.15 124.94-26.15Q129.24-26.15 134.79-24.95L134.79-24.95Q133.99-21.65 132.84-19L132.84-19Q128.64-18.7 126.34-18.7L126.34-18.7Q126.79-19.85 127.19-22ZM141.34-25L154.84-25 154.84-23.65Q154.84-10.45 153.19 0L153.19 0 141.19 0Q142.14-4.6 142.14-10.63 142.14-16.65 141.34-25L141.34-25ZM190.44-22.7L190.44-22.7Q190.44-24.05 190.04-25L190.04-25 204.29-25Q206.09-20.2 206.96-13.25 207.84-6.3 207.89 0L207.89 0 196.34 0Q195.99-9 193.39-17.35L193.39-17.35Q189.04-8.85 188.69 0L188.69 0 178.89 0Q177.59-9.8 173.89-17.4L173.89-17.4Q171.19-11.05 171.19-5.6L171.19-5.6Q171.19-2.65 171.89 0L171.89 0 159.74 0Q159.39-2.05 159.39-5.43 159.39-8.8 160.39-12.2L160.39-12.2Q163.94-13.25 167.21-15.65 170.49-18.05 172.04-20.9L172.04-20.9Q170.74-23.05 169.29-25L169.29-25 185.09-25Q186.99-19.85 187.94-13.8L187.94-13.8Q190.44-18.45 190.44-22.7ZM213.74-25L227.24-25 227.24-23.65Q227.24-10.45 225.59 0L225.59 0 213.59 0Q214.54-4.6 214.54-10.63 214.54-16.65 213.74-25L213.74-25ZM261.08-16.3L261.08-16.3 261.03-14.6Q257.03-12.45 251.03-11.25L251.03-11.25Q255.33-10.1 259.33-10.1L259.33-10.1 260.38-10.1Q263.13-6.05 263.93 0L263.93 0 250.98 0Q250.48-3.5 248.96-6.03 247.43-8.55 245.23-9.45L245.23-9.45Q245.18-8.6 245.18-6.05 245.18-3.5 245.48 0L245.48 0 234.58 0Q233.13-7.25 233.13-13.48 233.13-19.7 233.83-25L233.83-25 259.93-25Q261.08-19.95 261.08-16.3ZM246.28-21.65L246.28-21.65Q245.68-17.25 245.38-13L245.38-13Q248.13-13.4 249.88-14.95L249.88-14.95Q248.93-18.3 246.28-21.65ZM317.73-20.85L317.73-20.85Q317.73-11.05 315.83 0L315.83 0 303.88 0Q304.68-5.9 304.93-12.7L304.93-12.7Q302.33-14.3 299.13-14.65L299.13-14.65Q298.83-7.3 297.53 0L297.53 0 286.18 0Q286.83-4.9 286.83-11.73 286.83-18.55 285.93-25L285.93-25 299.13-25Q299.23-22.95 299.23-18.9L299.23-18.9Q302.13-18 304.98-16.45L304.98-16.45Q304.98-21.1 304.63-25L304.63-25 317.63-25Q317.73-22.2 317.73-20.85ZM350.88-16.3L350.88-16.3 350.83-14.6Q346.83-12.45 340.83-11.25L340.83-11.25Q345.13-10.1 349.13-10.1L349.13-10.1 350.18-10.1Q352.93-6.05 353.73 0L353.73 0 340.78 0Q340.28-3.5 338.75-6.03 337.23-8.55 335.03-9.45L335.03-9.45Q334.98-8.6 334.98-6.05 334.98-3.5 335.28 0L335.28 0 324.38 0Q322.93-7.25 322.93-13.48 322.93-19.7 323.63-25L323.63-25 349.73-25Q350.88-19.95 350.88-16.3ZM336.08-21.65L336.08-21.65Q335.48-17.25 335.18-13L335.18-13Q337.93-13.4 339.68-14.95L339.68-14.95Q338.73-18.3 336.08-21.65ZM358.62-25L372.12-25 372.12-23.65Q372.12-10.45 370.47 0L370.47 0 358.47 0Q359.42-4.6 359.42-10.63 359.42-16.65 358.62-25L358.62-25ZM396.02-22L396.02-22Q394.02-22.3 391.75-22.3 389.47-22.3 387.32-22L387.32-22Q388.67-19.7 390.52-18.25 392.37-16.8 395.2-15.38 398.02-13.95 399.8-12.75 401.57-11.55 403.72-8.8 405.87-6.05 406.42-3.05L406.42-3.05Q404.02 0.05 400.07 2.43 396.12 4.8 391.97 5.6L391.97 5.6Q389.17 5.35 384.9 4.03 380.62 2.7 378.47 2.7 376.32 2.7 374.17 4.05L374.17 4.05Q375.07 1.5 377.12-2.35L377.12-2.35 377.52-2.35Q380.72-2.35 383.55-1.35 386.37-0.35 388.7 0.65 391.02 1.65 392.45 1.65 393.87 1.65 394.52 1.45L394.52 1.45Q394.52-1.85 392.47-4L392.47-4Q391.37-5.15 390.6-5.78 389.82-6.4 388.22-7.5L388.22-7.5 387.37-8.1Q383.97-10.45 381.77-12.88 379.57-15.3 378.57-18.85L378.57-18.85Q380.17-22.4 381.72-25L381.72-25Q386.47-26.15 391.57-26.15L391.57-26.15 393.77-26.15Q398.07-26.15 403.62-24.95L403.62-24.95Q402.82-21.65 401.67-19L401.67-19Q397.47-18.7 395.17-18.7L395.17-18.7Q395.62-19.85 396.02-22ZM430.22-21.75L430.22-21.75Q428.92-13.85 428.92-8.85 428.92-3.85 429.32 0L429.32 0 418.42 0Q416.72-7.95 416.72-17.1L416.72-17.1Q416.72-18.65 416.82-21.75L416.82-21.75Q412.57-20.5 411.62-16L411.62-16 406.67-16.3 408.47-25 441.72-25Q440.72-19.5 439.42-16L439.42-16 434.37-16.3Q434.57-17.1 434.57-17.9L434.57-17.9Q434.57-19.85 433.37-20.8 432.17-21.75 430.22-21.75ZM448.02-0.15L448.02-0.15Q443.57-5.85 443.57-11.85 443.57-17.85 448.57-22 453.57-26.15 461.37-26.15L461.37-26.15Q465.52-26.15 469.62-24.9L469.62-24.9Q473.22-20.35 473.22-15.15L473.22-15.15Q473.22-8.6 467.87-3.75 462.52 1.1 454.92 1.1L454.92 1.1Q451.67 1.1 448.02-0.15ZM455.62-21.8L455.62-21.8Q453.87-18.8 453.87-14.75 453.87-10.7 455.64-7.28 457.42-3.85 460.52-2.35L460.52-2.35Q462.87-5.35 462.87-9.3 462.87-13.25 460.94-16.65 459.02-20.05 455.62-21.8ZM496.21-17.05L496.21-17.05Q496.21-20.7 494.91-25L494.91-25 508.26-25Q508.31-24.25 508.31-22.8L508.31-22.8Q508.31-16.4 506.61-12.25L506.61-12.25Q502.01-10.25 499.24-8.22 496.46-6.2 496.46-4.05 496.46-1.9 498.31 0L498.31 0 485.76 0Q477.31-10.75 475.16-25L475.16-25 488.81-25Q489.01-15.85 493.51-7.15L493.51-7.15Q496.21-11.65 496.21-17.05Z" opacity="1" transform="matrix(1,0,0,1,0,0)" fill="#3d9970" class="wordmark-text-0" data-fill-palette-color="primary" id="text-0"></path></svg></g></svg></g></svg></g></svg></g><g></g></svg></g></svg></g></svg></g></svg></g><defs></defs></svg><rect width="395.52" height="247.2" fill="none" stroke="none" visibility="hidden"></rect></g></svg></g></svg>